<svg xmlns="http://www.w3.org/2000/svg" xmlns:xlink="http://www.w3.org/1999/xlink" width="202" height="43" viewBox="0 0 202 43">
  <defs>
    <clipPath id="clip-path">
      <path id="パス_67" data-name="パス 67" d="M180.5,41H19.5A19.461,19.461,0,0,1,0,21.5V19.4A19.44,19.44,0,0,1,19.5,0H180.6A19.44,19.44,0,0,1,200,19.5v2.1A19.44,19.44,0,0,1,180.5,41Z"/>
    </clipPath>
  </defs>
  <g id="グループ_31" data-name="グループ 31" transform="translate(-859 -824)">
    <path id="パス_68" data-name="パス 68" d="M180.5,41H19.5A19.461,19.461,0,0,1,0,21.5V19.4A19.44,19.44,0,0,1,19.5,0H180.6A19.44,19.44,0,0,1,200,19.5v2.1A19.44,19.44,0,0,1,180.5,41Z" transform="translate(860 825)" fill="none" stroke="#003bd0" stroke-miterlimit="10" stroke-width="2"/>
    <g id="グループ_30" data-name="グループ 30" transform="translate(860 825)" clip-path="url(#clip-path)">
      <path id="パス_64" data-name="パス 64" d="M160.6,5.3V34.2c0,6.1-3.8,9.8-9.2,9.8h-13V37.7h11.9a3.857,3.857,0,0,0,4.1-4v-.4H146c-5.1,0-9.2-3.6-9.2-10.2V15.6c0-6.6,4.1-10.2,9.2-10.2h14.6Zm-6.2,6.3h-7a4.374,4.374,0,0,0-4.1,4.6v6.1a4.442,4.442,0,0,0,4.1,4.6h7Z"/>
      <path id="パス_62" data-name="パス 62" d="M98.4-4.5h6.7V34.1H98.4Z"/>
      <path id="パス_63" data-name="パス 63" d="M122.6,5.3c6.6,0,10.7,4.1,10.7,10.5v7.8c0,6.4-4,10.6-10.7,10.6h-2.3c-6.6,0-10.6-4.2-10.6-10.6V15.8c0-6.4,4-10.5,10.6-10.5Zm-2.3,6.5a4.1,4.1,0,0,0-4.2,4.2v7.4a4.044,4.044,0,0,0,4.2,4.2h2.3a4.1,4.1,0,0,0,4.2-4.2V16a4.044,4.044,0,0,0-4.2-4.2Z"/>
      <path id="パス_65" data-name="パス 65" d="M171.7,2.2H165V-4.4h6.7Zm0,32H165V5.3h6.7Z"/>
      <path id="パス_66" data-name="パス 66" d="M188.5,11.7c-4,0-4.8,2-4.8,4.8V34.2H177V5.3h6.7V6a11.226,11.226,0,0,1,4.2-.7h2.9c6.7,0,10.3,4.9,10.3,9.8v19h-6.7V16.5c0-2.7-.6-4.8-4.6-4.8Z"/>
    </g>
  </g>
</svg>
