<svg id="logout" xmlns="http://www.w3.org/2000/svg" xmlns:xlink="http://www.w3.org/1999/xlink" width="126.258" height="26.475" viewBox="0 0 126.258 26.475">
  <defs>
    <clipPath id="clip-path">
      <path id="パス_43" data-name="パス 43" d="M118.966,25.22H28.91A11.624,11.624,0,0,1,17.3,13.61h0A11.624,11.624,0,0,1,28.91,2h90.056a11.624,11.624,0,0,1,11.61,11.61h0A11.624,11.624,0,0,1,118.966,25.22Z" transform="translate(-17.3 -2)"/>
    </clipPath>
  </defs>
  <path id="パス_36" data-name="パス 36" d="M113.021,25.475H13.238A12.213,12.213,0,0,1,1,13.238v-.063A12.2,12.2,0,0,1,13.238,1h99.846a12.2,12.2,0,0,1,12.175,12.238V13.3A12.2,12.2,0,0,1,113.021,25.475Z" fill="none" stroke="#ff3b09" stroke-miterlimit="10" stroke-width="2"/>
  <g id="グループ_16" data-name="グループ 16" transform="translate(11.229 1.628)">
    <g id="グループ_15" data-name="グループ 15" clip-path="url(#clip-path)">
      <path id="パス_37" data-name="パス 37" d="M73-1.2h3.765V20.451H73Z" transform="translate(-38.045 -0.808)"/>
      <path id="パス_38" data-name="パス 38" d="M90.18,7.5c3.7,0,5.962,2.322,5.962,5.9v4.33c0,3.577-2.259,5.9-5.962,5.9H88.862c-3.7,0-5.962-2.322-5.962-5.9V13.462c0-3.577,2.259-5.9,5.962-5.9H90.18Zm-1.255,3.64A2.293,2.293,0,0,0,86.6,13.525v4.142a2.293,2.293,0,0,0,2.322,2.385h1.318a2.293,2.293,0,0,0,2.322-2.385V13.525a2.293,2.293,0,0,0-2.322-2.385Z" transform="translate(-41.732 -4.048)"/>
      <path id="パス_39" data-name="パス 39" d="M120.6,7.5V23.691c0,3.452-2.134,5.46-5.146,5.46h-7.28V25.637h6.715a2.14,2.14,0,0,0,2.259-2.259v-.188h-4.707c-2.824,0-5.146-2.008-5.146-5.711v-4.2c0-3.7,2.322-5.711,5.146-5.711H120.6Zm-3.452,3.577h-3.891a2.5,2.5,0,0,0-2.322,2.573V17.1a2.461,2.461,0,0,0,2.322,2.573h3.891Z" transform="translate(-50.819 -4.048)"/>
      <path id="パス_40" data-name="パス 40" d="M138.88,7.5c3.7,0,5.962,2.322,5.962,5.9v4.33c0,3.577-2.259,5.9-5.962,5.9h-1.318c-3.7,0-5.962-2.322-5.962-5.9V13.462c0-3.577,2.259-5.9,5.962-5.9h1.318Zm-1.255,3.64a2.293,2.293,0,0,0-2.322,2.385v4.142a2.293,2.293,0,0,0,2.322,2.385h1.318a2.293,2.293,0,0,0,2.322-2.385V13.525a2.293,2.293,0,0,0-2.322-2.385Z" transform="translate(-59.869 -4.048)"/>
      <path id="パス_41" data-name="パス 41" d="M163.529,20.051c2.071,0,2.573-1.067,2.636-2.448V7.5h3.7V23.691h-3.7v-.377a7.044,7.044,0,0,1-2.385.377h-1.632a5.4,5.4,0,0,1-5.648-5.523V7.5h3.7v9.916c0,1.506.377,2.636,2.636,2.636Z" transform="translate(-69.143 -4.048)"/>
      <path id="パス_42" data-name="パス 42" d="M180.6,4.26h3.012V-1.2h3.765V4.26h3.012V7.9h-3.012V20.451h-3.765V7.9H180.6Z" transform="translate(-78.118 -0.808)"/>
    </g>
  </g>
</svg>
