<svg id="download" xmlns="http://www.w3.org/2000/svg" xmlns:xlink="http://www.w3.org/1999/xlink" width="332.57" height="67.112" viewBox="0 0 332.57 67.112">
  <defs>
    <clipPath id="clip-path">
      <path id="パス_53" data-name="パス 53" d="M297.007,64.443H34.721A31.707,31.707,0,0,1,3,32.721H3A31.707,31.707,0,0,1,34.721,1H297.007a31.707,31.707,0,0,1,31.721,31.721h0A31.707,31.707,0,0,1,297.007,64.443Z" transform="translate(-3 -1)"/>
    </clipPath>
  </defs>
  <path id="パス_44" data-name="パス 44" d="M299.014,66.112H33.556A32.491,32.491,0,0,1,1,33.556v-.167A32.456,32.456,0,0,1,33.556,1H299.181A32.456,32.456,0,0,1,331.57,33.556v.167A32.456,32.456,0,0,1,299.014,66.112Z" fill="none" stroke="#eeff5c" stroke-miterlimit="10" stroke-width="2"/>
  <g id="グループ_19" data-name="グループ 19" transform="translate(4.339 1)">
    <g id="グループ_18" data-name="グループ 18" clip-path="url(#clip-path)">
      <g id="グループ_17" data-name="グループ 17" transform="translate(24.375 16.695)">
        <path id="パス_45" data-name="パス 45" d="M32.459,62.422C23.276,62.422,17.6,56.912,17.6,48.4V38.047c0-8.515,5.676-14.024,14.859-14.024h3.172a22.722,22.722,0,0,1,6.01.835V11h9.016V62.589h-18.2Zm9.182-8.682V38.214a5.711,5.711,0,0,0-6.01-5.676H32.459c-3.339,0-6.177,2.337-6.177,5.676v9.85c0,3.339,2.671,5.676,6.177,5.676h9.182Z" transform="translate(-17.6 -11)"/>
        <path id="パス_46" data-name="パス 46" d="M58.331,18.8c9.349,0,15.026,5.509,15.026,14.024V43.175c0,8.515-5.676,14.024-15.026,14.024H55.159C45.976,57.2,40.3,51.69,40.3,43.175V32.824c0-8.515,5.676-14.024,14.859-14.024h3.172Zm-3.339,8.682a5.57,5.57,0,0,0-5.843,5.676v9.85a5.57,5.57,0,0,0,5.843,5.676h3.172a5.57,5.57,0,0,0,5.843-5.676v-9.85a5.57,5.57,0,0,0-5.843-5.676Z" transform="translate(-2.401 -5.778)"/>
        <path id="パス_47" data-name="パス 47" d="M107.679,57.266H98.663L90.816,33.058,83.3,57.266H74.455L62.1,18.7h8.849L78.8,43.075,86.308,18.7h9.016l7.847,24.208L110.684,18.7h8.849Z" transform="translate(12.195 -5.845)"/>
        <path id="パス_48" data-name="パス 48" d="M115.528,27.315c-5.676,0-6.678,2.671-6.678,6.344V57.2H99.5V18.8h9.349v1a16.517,16.517,0,0,1,5.843-1h4.174c9.349,0,14.358,6.678,14.358,13.189V57.366h-9.349V33.659c0-3.673-.835-6.344-6.511-6.344h-1.837Z" transform="translate(37.236 -5.778)"/>
        <path id="パス_49" data-name="パス 49" d="M123.5,11h9.349V62.589H123.5V11Z" transform="translate(53.305 -11)"/>
        <path id="パス_50" data-name="パス 50" d="M151.031,18.8c9.349,0,15.026,5.509,15.026,14.024V43.175c0,8.515-5.676,14.024-15.026,14.024h-3.172C138.676,57.2,133,51.69,133,43.175V32.824c0-8.515,5.676-14.024,14.859-14.024h3.172Zm-3.172,8.682a5.57,5.57,0,0,0-5.843,5.676v9.85a5.57,5.57,0,0,0,5.843,5.676h3.172a5.57,5.57,0,0,0,5.843-5.676v-9.85a5.57,5.57,0,0,0-5.843-5.676Z" transform="translate(59.665 -5.778)"/>
        <path id="パス_51" data-name="パス 51" d="M155.834,30.988c.5-6.344,5.009-12.188,14.191-12.188h4.842c9.516,0,14.191,6.678,14.191,13.189V57.366H166.519c-7.179,0-11.019-5.343-11.019-11.687s4.007-11.186,10.852-11.186h13.69v-.835c0-3.673-.835-6.344-6.511-6.344h-2c-4.341,0-5.676,1.169-6.511,3.506h-9.182ZM166.686,49.52h13.189V41.84H166.686c-1.336,0-2.671,1.336-2.671,3.84S165.35,49.52,166.686,49.52Z" transform="translate(74.73 -5.778)"/>
        <path id="パス_52" data-name="パス 52" d="M193.659,62.422c-9.182,0-14.859-5.509-14.859-14.024V38.047c0-8.515,5.676-14.024,14.859-14.024h3.172a22.722,22.722,0,0,1,6.01.835V11h9.016V62.589h-18.2Zm9.349-8.682V38.214A5.711,5.711,0,0,0,197,32.537h-3.172c-3.339,0-6.177,2.337-6.177,5.676v9.85c0,3.339,2.671,5.676,6.177,5.676h9.182Z" transform="translate(90.331 -11)"/>
      </g>
    </g>
  </g>
</svg>
