<svg xmlns="http://www.w3.org/2000/svg" width="312.364" height="143.058" viewBox="0 0 312.364 143.058">
  <g id="SHOWSEKI_logo" transform="translate(-14.4 -16.235)">
    <g id="グループ_1" data-name="グループ 1" transform="translate(134.601 16.235)">
      <rect id="長方形_1" data-name="長方形 1" width="25.052" height="2.505" transform="translate(4.096 14.059) rotate(-31.468)"/>
      <rect id="長方形_2" data-name="長方形 2" width="18.467" height="2.505" transform="translate(25.482 0.953) rotate(-2.957)"/>
      <rect id="長方形_3" data-name="長方形 3" width="2.505" height="22.547" transform="translate(42.559 2.189) rotate(-59.576)"/>
      <rect id="長方形_4" data-name="長方形 4" width="2.505" height="26.197" transform="translate(61.005 12.283) rotate(-19.287)"/>
      <rect id="長方形_5" data-name="長方形 5" width="14.888" height="2.505" transform="translate(62.182 47.746) rotate(-59.504)"/>
      <rect id="長方形_6" data-name="長方形 6" width="26.985" height="2.505" transform="translate(40.886 62.54) rotate(-35.246)"/>
      <rect id="長方形_7" data-name="長方形 7" width="2.505" height="10.665" transform="translate(31.776 63.419) rotate(-83.621)"/>
      <rect id="長方形_8" data-name="長方形 8" width="2.505" height="22.404" transform="matrix(0.545, -0.839, 0.839, 0.545, 12.94, 51.149)"/>
      <rect id="長方形_9" data-name="長方形 9" width="2.505" height="22.332" transform="matrix(0.814, -0.58, 0.58, 0.814, 0.019, 32.958)"/>
      <rect id="長方形_10" data-name="長方形 10" width="19.397" height="2.505" transform="translate(0 32.941) rotate(-77.666)"/>
      <rect id="長方形_11" data-name="長方形 11" width="15.747" height="2.505" transform="translate(41.923 40.102) rotate(-30.139)"/>
      <rect id="長方形_12" data-name="長方形 12" width="2.505" height="16.463" transform="translate(4.608 15.198) rotate(-49.762)"/>
      <rect id="長方形_13" data-name="長方形 13" width="2.505" height="18.753" transform="translate(17.061 25.706) rotate(-44.076)"/>
      <rect id="長方形_14" data-name="長方形 14" width="2.505" height="11.953" transform="matrix(0.239, -0.971, 0.971, 0.239, 30.651, 39.505)"/>
      <rect id="長方形_15" data-name="長方形 15" width="22.189" height="2.505" transform="matrix(0.269, -0.963, 0.963, 0.269, 55.027, 32.933)"/>
      <rect id="長方形_16" data-name="長方形 16" width="2.505" height="16.678" transform="translate(55.082 33.773) rotate(-25.22)"/>
      <rect id="長方形_17" data-name="長方形 17" width="22.404" height="2.505" transform="translate(40.403 63.503) rotate(-87.537)"/>
      <rect id="長方形_18" data-name="長方形 18" width="2.505" height="23.835" transform="translate(29.712 38.397) rotate(-2.255)"/>
      <rect id="長方形_19" data-name="長方形 19" width="26.126" height="2.505" transform="matrix(0.137, -0.99, 0.99, 0.137, 12.422, 49.995)"/>
      <rect id="長方形_20" data-name="長方形 20" width="34.787" height="2.505" transform="matrix(0.746, -0.665, 0.665, 0.746, 16.375, 23.336)"/>
    </g>
    <g id="グループ_2" data-name="グループ 2" transform="translate(76.171 149.559)">
      <path id="パス_1" data-name="パス 1" d="M101.917,203.717v2.434h9.735v6.084H100.7v-1.217h9.735v-3.65H100.7V202.5h10.951v1.217Z" transform="translate(-100.7 -202.5)"/>
      <path id="パス_2" data-name="パス 2" d="M119.4,202.5h10.951v1.217h-4.867v8.518h-1.217v-8.518H119.4Z" transform="translate(-106.015 -202.5)"/>
      <path id="パス_3" data-name="パス 3" d="M138.1,202.5h10.951v9.735H138.1Zm9.735,8.518v-7.3h-8.518v7.3Z" transform="translate(-111.33 -202.5)"/>
      <path id="パス_4" data-name="パス 4" d="M166.635,202.5h1.217v9.735h-6.084v-8.518h-3.65v8.518H156.9V202.5h6.084v8.518h3.65Z" transform="translate(-116.673 -202.5)"/>
      <path id="パス_5" data-name="パス 5" d="M176.817,203.717v2.434h9.735v1.217h-9.735v3.65h9.735v1.217H175.6V202.5h10.951v1.217Z" transform="translate(-121.988 -202.5)"/>
      <path id="パス_6" data-name="パス 6" d="M204.5,202.5h13.385v9.735h-1.217v-8.518H211.8v8.518h-1.217v-8.518h-4.867v8.518H204.5Z" transform="translate(-130.203 -202.5)"/>
      <path id="パス_7" data-name="パス 7" d="M226.6,202.5h11.023v9.735h-1.217v-3.65h-8.518v3.65h-1.217V202.5Zm9.806,4.867v-3.65h-8.518v3.65Z" transform="translate(-136.484 -202.5)"/>
      <path id="パス_8" data-name="パス 8" d="M245.4,202.5h10.951v1.217h-4.867v8.518h-1.217v-8.518H245.4Z" transform="translate(-141.827 -202.5)"/>
      <path id="パス_9" data-name="パス 9" d="M265.317,203.717v2.434h9.734v1.217h-9.734v3.65h9.734v1.217H264.1V202.5h10.951v1.217Z" transform="translate(-147.142 -202.5)"/>
      <path id="パス_10" data-name="パス 10" d="M282.8,202.5h10.951v6.084h-2.434v2.434h2.434v1.217H290.1v-3.65h-6.084v3.65H282.8Zm9.735,4.867v-3.65h-8.518v3.65Z" transform="translate(-152.457 -202.5)"/>
      <path id="パス_11" data-name="パス 11" d="M305.15,203.717v7.3h2.434v1.217H301.5v-1.217h2.434v-7.3H301.5V202.5h6.084v1.217Z" transform="translate(-157.772 -202.5)"/>
      <path id="パス_12" data-name="パス 12" d="M313.5,202.5h10.951v9.735h-1.217v-3.65h-8.518v3.65H313.5V202.5Zm9.735,4.867v-3.65h-8.518v3.65Z" transform="translate(-161.183 -202.5)"/>
      <path id="パス_13" data-name="パス 13" d="M332.2,202.5h10.951v9.735h-1.217v-3.65h-8.518v3.65H332.2V202.5Zm9.734,4.867v-3.65h-8.518v3.65Z" transform="translate(-166.498 -202.5)"/>
      <path id="パス_14" data-name="パス 14" d="M352.117,211.018h8.518v1.217H350.9V202.5h1.217Z" transform="translate(-171.813 -202.5)"/>
    </g>
    <g id="グループ_3" data-name="グループ 3" transform="translate(14.4 96.663)">
      <path id="パス_15" data-name="パス 15" d="M58.706,139.15l-1.36,1.432H34.871a8.788,8.788,0,0,0-5.8,2.577,7.789,7.789,0,0,0-2.863,6.012H14.4a18.4,18.4,0,0,1,1.789-8.16,21.049,21.049,0,0,1,4.581-6.442,22.05,22.05,0,0,1,6.442-4.295A18.469,18.469,0,0,1,34.37,128.7H57.346l1.36,1.432v9.019ZM14.4,161.339l1.36-1.432H38.235a8.68,8.68,0,0,0,5.8-2.72,8.181,8.181,0,0,0,2.863-6.156h11.81a18.4,18.4,0,0,1-1.789,8.16,21.049,21.049,0,0,1-4.581,6.442,22.051,22.051,0,0,1-6.442,4.295,18.469,18.469,0,0,1-7.158,1.575H15.76l-1.36-1.432Zm34.429-8.231a12.023,12.023,0,0,1-11.667,8.876H16.547v7.3H36.589a23.163,23.163,0,0,0,6.943-.716,14.644,14.644,0,0,0,4.724-2.362,21.93,21.93,0,0,0,3.794-3.436,19.77,19.77,0,0,0,2.577-3.794,22.973,22.973,0,0,0,1.432-3.293,8.752,8.752,0,0,0,.429-2.505H48.829Zm-24.551-6.084c.358-1.933,1.575-3.794,3.65-5.726a11.812,11.812,0,0,1,8.017-2.863H56.559v-7.659H36.517a23.163,23.163,0,0,0-6.943.716,14.645,14.645,0,0,0-4.724,2.362,21.93,21.93,0,0,0-3.794,3.436,19.77,19.77,0,0,0-2.577,3.794,22.973,22.973,0,0,0-1.432,3.293,8.752,8.752,0,0,0-.429,2.505h7.659Z" transform="translate(-14.4 -128.628)"/>
      <path id="パス_16" data-name="パス 16" d="M114,128.7l1.217.931V170.5l-1.217.931h-9.949l-1.217-.931V155.9H90.383v14.6l-1.217.931H79.217L78,170.5V143.946h24.837V129.631l1.217-.931ZM78,140.653c0-1.145.072-2.219.143-3.078a15.572,15.572,0,0,1,.573-2.863A11.365,11.365,0,0,1,80,131.849a7.859,7.859,0,0,1,2.434-2.147,8.542,8.542,0,0,1,3.865-.931h4.08v10.951l-1.217.931Zm10.236-10.379a12.876,12.876,0,0,0-3.937.5,4.85,4.85,0,0,0-1.646,1,5.043,5.043,0,0,0-1.145,1.36,15.142,15.142,0,0,0-.787,1.5,12.265,12.265,0,0,0-.644,3.937h8.088v-8.3Zm16.678.573v15.246H80.076v23.191h8.088V153.752h16.749v15.532h8.16V130.847Z" transform="translate(-32.477 -128.628)"/>
      <path id="パス_17" data-name="パス 17" d="M131.8,150.1a20.292,20.292,0,0,1,1.718-8.3,22.514,22.514,0,0,1,4.653-6.8,21.8,21.8,0,0,1,6.871-4.581,21.976,21.976,0,0,1,17.035,0A21.684,21.684,0,0,1,173.6,141.8a20.292,20.292,0,0,1,1.718,8.3,20.876,20.876,0,0,1-1.718,8.375,22.513,22.513,0,0,1-4.653,6.8,21.8,21.8,0,0,1-6.871,4.581,21.261,21.261,0,0,1-8.518,1.646,22.3,22.3,0,0,1-8.518-1.646,21.684,21.684,0,0,1-11.524-11.381A20.876,20.876,0,0,1,131.8,150.1Zm2.147,0a17.831,17.831,0,0,0,1.575,7.444,18.513,18.513,0,0,0,4.223,6.156,22.029,22.029,0,0,0,6.227,4.152,20.263,20.263,0,0,0,15.318,0,18.934,18.934,0,0,0,6.3-4.152,18.513,18.513,0,0,0,4.223-6.156,19.023,19.023,0,0,0,1.575-7.444,17.831,17.831,0,0,0-1.575-7.444,18.513,18.513,0,0,0-4.223-6.156,21.418,21.418,0,0,0-6.3-4.151,20.263,20.263,0,0,0-15.318,0,17.938,17.938,0,0,0-6.227,4.151,19.633,19.633,0,0,0-4.223,6.156A17.6,17.6,0,0,0,133.947,150.1Zm8.088.286a10.284,10.284,0,0,1,.931-4.438,12.757,12.757,0,0,1,2.505-3.65,13.6,13.6,0,0,1,3.722-2.505,10.834,10.834,0,0,1,4.509-.931,11.76,11.76,0,0,1,8.3,3.436,10.08,10.08,0,0,1,2.505,3.65,11.048,11.048,0,0,1,0,8.876,14.38,14.38,0,0,1-2.505,3.65,11.974,11.974,0,0,1-3.722,2.434,12.13,12.13,0,0,1-4.581.859,11.764,11.764,0,0,1-4.509-.859,11.974,11.974,0,0,1-3.722-2.434,11.051,11.051,0,0,1-2.505-3.65A10.284,10.284,0,0,1,142.036,150.388Zm2.147,0a8.456,8.456,0,0,0,.787,3.579,10.426,10.426,0,0,0,2.076,2.935,9.7,9.7,0,0,0,6.8,2.72,8.981,8.981,0,0,0,3.65-.716,9.943,9.943,0,0,0,3.078-2,10.426,10.426,0,0,0,2.076-2.935,8.527,8.527,0,0,0,0-7.158,10.427,10.427,0,0,0-2.076-2.935A12.919,12.919,0,0,0,157.5,141.8a9.037,9.037,0,0,0-3.65-.787,9.647,9.647,0,0,0-3.722.787,11.1,11.1,0,0,0-3.078,2.076,10.426,10.426,0,0,0-2.076,2.935A7.5,7.5,0,0,0,144.183,150.388Z" transform="translate(-47.768 -128.628)"/>
      <path id="パス_18" data-name="パス 18" d="M205.251,128.672l1.36,1.432v16.391h8.16l1.36,1.432v6.012L200.6,171.26H195.66l-1.36-1.432v-39.8l1.36-1.432h9.591Zm-8.8,2.147v38.437h3.507l14.029-15.962v-4.581h-9.52V130.819Zm40.728-2.147,1.36,1.432v39.8l-1.36,1.432h-4.939L216.7,154.01V148l1.36-1.432h8.16V130.175l1.36-1.432h9.591Zm-8.8,2.147v17.894h-9.52v4.581l14.029,15.962h3.507V130.819Z" transform="translate(-65.532 -128.6)"/>
      <path id="パス_19" data-name="パス 19" d="M302.006,139.15l-1.36,1.432H278.171a8.788,8.788,0,0,0-5.8,2.577,7.789,7.789,0,0,0-2.863,6.012H257.7a18.4,18.4,0,0,1,1.789-8.16,21.049,21.049,0,0,1,4.581-6.442,22.05,22.05,0,0,1,6.442-4.295,18.469,18.469,0,0,1,7.158-1.575h22.976l1.36,1.432ZM257.7,161.339l1.36-1.432h22.475a8.68,8.68,0,0,0,5.8-2.72,8.181,8.181,0,0,0,2.863-6.156h11.81a18.4,18.4,0,0,1-1.789,8.16,21.049,21.049,0,0,1-4.581,6.442,22.051,22.051,0,0,1-6.442,4.295,17.507,17.507,0,0,1-7.158,1.575H259.06l-1.36-1.432Zm34.429-8.231a12.023,12.023,0,0,1-11.667,8.876H259.847v7.3h20.042a23.163,23.163,0,0,0,6.943-.716,14.645,14.645,0,0,0,4.724-2.362,21.931,21.931,0,0,0,3.794-3.436,19.768,19.768,0,0,0,2.577-3.794,22.972,22.972,0,0,0,1.432-3.293,8.753,8.753,0,0,0,.429-2.505h-7.659Zm-24.551-6.084c.358-1.933,1.575-3.794,3.65-5.726a11.812,11.812,0,0,1,8.017-2.863h20.614v-7.659H279.817a23.163,23.163,0,0,0-6.943.716,14.645,14.645,0,0,0-4.724,2.362,21.93,21.93,0,0,0-3.794,3.436,19.771,19.771,0,0,0-2.577,3.794,22.977,22.977,0,0,0-1.432,3.293,8.753,8.753,0,0,0-.429,2.505h7.659Z" transform="translate(-83.552 -128.628)"/>
      <path id="パス_20" data-name="パス 20" d="M322.517,140.653l-1.217-.931V129.631l1.217-.931h37.435l1.217.931v10.092l-1.217.931Zm34.643,3.293H322.517l-1.217.931V170.5l1.217.931H359.88l1.288-.931v-9.448l-1.217-1.432H333.683v-3.436H344.2a14.779,14.779,0,0,0,5.3-1.217,12.771,12.771,0,0,0,3.65-2.29,13.426,13.426,0,0,0,2.72-3.865A11,11,0,0,0,357.16,143.946Zm1.861-5.44v-7.659H323.447v7.659Zm-35.574,7.587H354.3a9.59,9.59,0,0,1-1.861,3.722,11.991,11.991,0,0,1-3.364,2.935,10.5,10.5,0,0,1-5.154,1.288H331.536V161.7h27.486v7.587H323.447Z" transform="translate(-101.629 -128.628)"/>
      <path id="パス_21" data-name="パス 21" d="M416.708,128.7l-9.234,18.61v5.225l9.234,18.825H401.963l-7.015-15.532h-3.865v14.6l-1.217.931h-9.949l-1.217-.931V143.946h16.248l7.015-15.246ZM378.7,129.917l1.217-1.217h9.949l1.217,1.217v10.665H378.7Zm24.551.931-6.728,15.246H380.847v23.191h8.088V153.752h7.587l6.728,15.532h10.164l-8.231-16.749-.072-5.225,8.231-16.463Zm-22.4,7.659h8.088v-7.659h-8.088Z" transform="translate(-117.943 -128.628)"/>
      <path id="パス_22" data-name="パス 22" d="M433.5,129.917l1.217-1.217h9.949l1.217,1.217V170.5l-1.217.931h-9.949L433.5,170.5V129.917Zm2.147,39.368h8.088V130.847h-8.088Z" transform="translate(-133.519 -128.628)"/>
    </g>
  </g>
</svg>
