<svg xmlns="http://www.w3.org/2000/svg" xmlns:xlink="http://www.w3.org/1999/xlink" width="200" height="42" viewBox="0 0 200 42">
  <defs>
    <clipPath id="clip-path">
      <path id="パス_59" data-name="パス 59" d="M179.5,39H19.5A19.461,19.461,0,0,1,0,19.5V18.4A19.44,19.44,0,0,1,19.5-1H179.6A19.44,19.44,0,0,1,199,18.5v1.1A19.44,19.44,0,0,1,179.5,39Z"/>
    </clipPath>
  </defs>
  <g id="exec" transform="translate(0 1)">
    <path id="パス_54" data-name="パス 54" d="M179.5,40H20.5A19.461,19.461,0,0,1,1,20.5v-.1A19.44,19.44,0,0,1,20.5,1H179.6A19.44,19.44,0,0,1,199,20.5v.1A19.44,19.44,0,0,1,179.5,40Z" fill="none" stroke="#c117ff" stroke-miterlimit="10" stroke-width="2"/>
    <g id="グループ_21" data-name="グループ 21">
      <g id="グループ_20" data-name="グループ 20" clip-path="url(#clip-path)">
        <path id="パス_55" data-name="パス 55" d="M89.5,21.6c0-5.7,4.9-10.5,9.7-10.5h6.7c6.2,0,9.7,5.6,9.7,10.3v7.5H96.4v1.6c0,2.8,1.8,3.8,4.4,3.8h13.8v6.5H99.2a9.823,9.823,0,0,1-9.8-10.1V21.6Zm7,1.7h12.2V23c0-2.9-1.8-5.2-4.4-5.2h-3.7c-2.5,0-4.2,2.5-4.2,5.2v.3Z"/>
        <path id="パス_56" data-name="パス 56" d="M134.9,25.8c2.7,4.9,5.6,9.9,8.3,14.8h-7.1l-5.2-10-5.2,10h-7.1l8-14.6-8-14.9h7.1l5.2,10.3,5.2-10.3h7.1Z"/>
        <path id="パス_57" data-name="パス 57" d="M146.3,21.6c0-5.7,4.9-10.5,9.7-10.5h6.7c6.2,0,9.7,5.6,9.7,10.3v7.5H153.2v1.6c0,2.8,1.8,3.8,4.4,3.8h13.8v6.5H156a9.823,9.823,0,0,1-9.8-10.1V21.6Zm7,1.7h12.2V23c0-2.9-1.8-5.2-4.4-5.2h-3.7c-2.5,0-4.2,2.5-4.2,5.2v.3Z"/>
        <path id="パス_58" data-name="パス 58" d="M192.9,31.4h7c-.7,5.6-4.5,9.2-10.7,9.2h-2.4c-6.9,0-11.1-4.3-11.1-10.8V21.9c0-6.5,4.3-10.8,11.1-10.8h2.4c6.3,0,10.2,3.6,10.8,9.3h-7a3.56,3.56,0,0,0-3.8-2.7h-2.4a4.232,4.232,0,0,0-4.4,4.3v7.6a4.175,4.175,0,0,0,4.4,4.3h2.4C191.1,33.9,192.5,33,192.9,31.4Z"/>
      </g>
    </g>
  </g>
</svg>
