<svg xmlns="http://www.w3.org/2000/svg" xmlns:xlink="http://www.w3.org/1999/xlink" width="261.519" height="45.694" viewBox="0 0 261.519 45.694">
  <defs>
    <clipPath id="clip-path">
      <rect width="261.519" height="45.694" fill="none"/>
    </clipPath>
  </defs>
  <g id="グループ_24" data-name="グループ 24" transform="translate(-717.789 -386.454)">
    <g id="スクロールグループ_1" data-name="スクロールグループ 1" transform="translate(717.789 386.454)" clip-path="url(#clip-path)" style="isolation: isolate">
      <path id="パス_60" data-name="パス 60" d="M3.4-12.312c.81,3.321,1.377,4.7,2.592,6.4,3,4.131,8.667,6.318,16.038,6.318,11.1,0,17.982-5.022,17.982-13.122a10.693,10.693,0,0,0-3.888-8.424C33.7-23,31.1-23.976,23.247-25.758c-5.022-1.053-7.128-1.7-8.991-2.754A4.978,4.978,0,0,1,11.5-32.967c0-4.293,4.212-7.29,10.125-7.29,3.645,0,6.561,1.053,8.424,3.078,1.134,1.134,1.539,2.106,2.025,4.293l6.4-1.053c-1.053-3.726-2.187-5.589-4.293-7.371C31.266-43.9,26.973-45.2,21.465-45.2c-5.427,0-9.8,1.458-12.636,4.212a10.833,10.833,0,0,0-3.483,7.857A9.957,9.957,0,0,0,9.72-24.624c2.754,1.863,5.508,2.835,11.988,4.212,5.994,1.215,7.614,1.7,9.558,2.916a5.468,5.468,0,0,1,2.511,5.022c0,4.779-4.455,7.776-11.5,7.776-4.131,0-7.371-.972-9.4-2.835-1.62-1.458-2.268-2.916-2.835-5.913ZM87.48-21.384c-.162-2.187-.486-5.346-.567-6.237C85.293-38.475,77.76-45.2,67.311-45.2c-12.15,0-20.088,9.072-20.088,22.923C47.223-8.262,55.242.648,67.959.648A20.228,20.228,0,0,0,82.62-5.022a19.366,19.366,0,0,0,4.455-6.723L81.4-14.013C79.137-7.776,74.6-4.536,68.04-4.536a13.551,13.551,0,0,1-11.421-5.508c-2.187-2.916-3-5.913-3.24-11.34Zm-33.858-5.1a16.947,16.947,0,0,1,2.025-6.561,12.679,12.679,0,0,1,11.5-7.047,13.139,13.139,0,0,1,9.558,3.645C79.3-33.939,80.514-31.023,81-26.487Zm72.09,26h6.561a51.793,51.793,0,0,1-.648-8.91V-32.157c0-8.748-5.508-13.284-16.2-13.284-6.075,0-10.935,1.539-14.256,4.617-2.025,1.782-3.078,3.483-4.536,7.209l6.318,1.377a11.383,11.383,0,0,1,2.511-4.7c2.268-2.349,5.589-3.483,10.044-3.483,6.723,0,10.206,2.835,10.206,8.343v4.7c-9.963.243-13.851.729-18.63,2.106C99.549-23.166,95.5-18.468,95.5-11.988c0,7.7,5.427,12.312,14.337,12.312A23.908,23.908,0,0,0,118.26-1.3c2.754-1.053,4.293-2.106,7.452-4.941Zm0-16.848c0,3.24-.648,4.941-2.511,6.966a18.312,18.312,0,0,1-12.96,5.751c-5.265,0-8.586-2.835-8.586-7.29,0-3.888,2.025-6.642,6.156-8.343,3.645-1.539,8.262-2.106,17.9-2.349Zm45.765-26.811a37.2,37.2,0,0,0-7.209-.729,16.145,16.145,0,0,0-9.72,2.835,14.2,14.2,0,0,0-4.455,4.941,23.559,23.559,0,0,0,.081-2.43v-4.617h-6.723a58.706,58.706,0,0,1,.567,9.153V-9.639a73.91,73.91,0,0,1-.567,9.153h7.29a63.372,63.372,0,0,1-.567-9.072V-26.082a13.334,13.334,0,0,1,3-8.1,11.954,11.954,0,0,1,9.963-4.941,19.213,19.213,0,0,1,6.561,1.215Zm43.74,11.5a21.884,21.884,0,0,0-2.835-5.184c-3.483-4.86-8.91-7.452-15.633-7.452-12.393,0-20.493,9.153-20.493,23.166,0,13.851,8.181,22.68,20.9,22.68,6.561,0,11.745-2.349,15.309-6.8a22.212,22.212,0,0,0,3.321-6.237l-6.075-1.62a13.158,13.158,0,0,1-1.782,4.131c-2.106,3.321-5.913,5.184-10.53,5.184-9.072,0-14.9-6.8-14.9-17.5,0-10.854,5.67-17.82,14.58-17.82,5.994,0,9.882,3,12.231,9.315ZM232.308-.486a65.322,65.322,0,0,1-.567-9.153V-25.191a18.8,18.8,0,0,1,4.05-8.5c3.159-3.969,6.885-5.913,11.421-5.913,6.318,0,9.8,3.807,9.8,10.854V-9.639a56.681,56.681,0,0,1-.567,9.153h7.29a61.124,61.124,0,0,1-.567-9.072V-29.889c0-9.477-5.67-15.066-15.147-15.066a17.389,17.389,0,0,0-12.15,4.374,18.4,18.4,0,0,0-4.455,5.508,27.661,27.661,0,0,0,.243-4.05V-52.812a50.332,50.332,0,0,1,.648-9.234H225.1a59.4,59.4,0,0,1,.567,9.153V-9.639A58.706,58.706,0,0,1,225.1-.486Z" transform="translate(-2.789 62.546)" fill="#707070" stroke="#707070" stroke-width="1"/>
    </g>
  </g>
</svg>
